<svg width="9" height="10" viewBox="0 0 9 10" fill="none" xmlns="http://www.w3.org/2000/svg">
<path fill-rule="evenodd" clip-rule="evenodd" d="M8.71289 0.595527C8.45289 0.335527 8.03289 0.335527 7.77289 0.595527L4.51289 3.84886L1.25289 0.58886C0.992889 0.32886 0.572889 0.32886 0.312889 0.58886C0.0528894 0.84886 0.0528894 1.26886 0.312889 1.52886L3.57289 4.78886L0.312889 8.04886C0.0528894 8.30886 0.0528894 8.72886 0.312889 8.98886C0.572889 9.24886 0.992889 9.24886 1.25289 8.98886L4.51289 5.72886L7.77289 8.98886C8.03289 9.24886 8.45289 9.24886 8.71289 8.98886C8.97289 8.72886 8.97289 8.30886 8.71289 8.04886L5.45289 4.78886L8.71289 1.52886C8.96622 1.27553 8.96622 0.84886 8.71289 0.595527Z" fill="white"/>
</svg>
