<svg width="18" height="17" viewBox="0 0 18 17" fill="none" xmlns="http://www.w3.org/2000/svg">
<path d="M17.1429 3.57143H0C0 3.00311 0.225765 2.45806 0.627628 2.0562C1.02949 1.65434 1.57454 1.42857 2.14286 1.42857H2.85714V0.714286C2.85714 0.524845 2.9324 0.343164 3.06635 0.209209C3.20031 0.0752549 3.38199 0 3.57143 0C3.76087 0 3.94255 0.0752549 4.0765 0.209209C4.21046 0.343164 4.28571 0.524845 4.28571 0.714286V1.42857H7.85714V0.714286C7.85714 0.524845 7.9324 0.343164 8.06635 0.209209C8.20031 0.0752549 8.38199 0 8.57143 0C8.76087 0 8.94255 0.0752549 9.0765 0.209209C9.21046 0.343164 9.28571 0.524845 9.28571 0.714286V1.42857H12.8571V0.714286C12.8571 0.524845 12.9324 0.343164 13.0664 0.209209C13.2003 0.0752549 13.382 0 13.5714 0C13.7609 0 13.9425 0.0752549 14.0765 0.209209C14.2105 0.343164 14.2857 0.524845 14.2857 0.714286V1.42857H15C15.5683 1.42857 16.1134 1.65434 16.5152 2.0562C16.9171 2.45806 17.1429 3.00311 17.1429 3.57143ZM0 5H17.1429V14.8571C17.1429 15.4255 16.9171 15.9705 16.5152 16.3724C16.1134 16.7742 15.5683 17 15 17H2.14286C1.57454 17 1.02949 16.7742 0.627628 16.3724C0.225765 15.9705 0 15.4255 0 14.8571V5ZM11.4286 7.85714C11.4286 8.04658 11.5038 8.22826 11.6378 8.36222C11.7717 8.49617 11.9534 8.57143 12.1429 8.57143H13.5714C13.7609 8.57143 13.9425 8.49617 14.0765 8.36222C14.2105 8.22826 14.2857 8.04658 14.2857 7.85714C14.2857 7.6677 14.2105 7.48602 14.0765 7.35207C13.9425 7.21811 13.7609 7.14286 13.5714 7.14286H12.1429C11.9534 7.14286 11.7717 7.21811 11.6378 7.35207C11.5038 7.48602 11.4286 7.6677 11.4286 7.85714ZM11.4286 10.7143C11.4286 10.9037 11.5038 11.0854 11.6378 11.2194C11.7717 11.3533 11.9534 11.4286 12.1429 11.4286H13.5714C13.7609 11.4286 13.9425 11.3533 14.0765 11.2194C14.2105 11.0854 14.2857 10.9037 14.2857 10.7143C14.2857 10.5248 14.2105 10.3432 14.0765 10.2092C13.9425 10.0753 13.7609 10 13.5714 10H12.1429C11.9534 10 11.7717 10.0753 11.6378 10.2092C11.5038 10.3432 11.4286 10.5248 11.4286 10.7143ZM11.4286 13.5714C11.4286 13.7609 11.5038 13.9426 11.6378 14.0765C11.7717 14.2105 11.9534 14.2857 12.1429 14.2857H13.5714C13.7609 14.2857 13.9425 14.2105 14.0765 14.0765C14.2105 13.9426 14.2857 13.7609 14.2857 13.5714C14.2857 13.382 14.2105 13.2003 14.0765 13.0664C13.9425 12.9324 13.7609 12.8571 13.5714 12.8571H12.1429C11.9534 12.8571 11.7717 12.9324 11.6378 13.0664C11.5038 13.2003 11.4286 13.382 11.4286 13.5714ZM7.14286 7.85714C7.14286 8.13969 7.22664 8.41589 7.38361 8.65082C7.54059 8.88574 7.7637 9.06885 8.02474 9.17697C8.28577 9.2851 8.57301 9.31339 8.85013 9.25827C9.12724 9.20314 9.38179 9.06708 9.58158 8.8673C9.78137 8.66751 9.91743 8.41296 9.97255 8.13584C10.0277 7.85873 9.99938 7.57149 9.89126 7.31045C9.78313 7.04942 9.60003 6.8263 9.3651 6.66933C9.13017 6.51236 8.85397 6.42857 8.57143 6.42857C8.19255 6.42857 7.82919 6.57908 7.56128 6.84699C7.29337 7.1149 7.14286 7.47826 7.14286 7.85714ZM7.14286 10.7143C7.14286 10.9037 7.21811 11.0854 7.35207 11.2194C7.48602 11.3533 7.6677 11.4286 7.85714 11.4286H9.28571C9.47515 11.4286 9.65684 11.3533 9.79079 11.2194C9.92475 11.0854 10 10.9037 10 10.7143C10 10.5248 9.92475 10.3432 9.79079 10.2092C9.65684 10.0753 9.47515 10 9.28571 10H7.85714C7.6677 10 7.48602 10.0753 7.35207 10.2092C7.21811 10.3432 7.14286 10.5248 7.14286 10.7143ZM7.14286 13.5714C7.14286 13.7609 7.21811 13.9426 7.35207 14.0765C7.48602 14.2105 7.6677 14.2857 7.85714 14.2857H9.28571C9.47515 14.2857 9.65684 14.2105 9.79079 14.0765C9.92475 13.9426 10 13.7609 10 13.5714C10 13.382 9.92475 13.2003 9.79079 13.0664C9.65684 12.9324 9.47515 12.8571 9.28571 12.8571H7.85714C7.6677 12.8571 7.48602 12.9324 7.35207 13.0664C7.21811 13.2003 7.14286 13.382 7.14286 13.5714ZM2.85714 7.85714C2.85714 8.13969 2.94093 8.41589 3.0979 8.65082C3.25487 8.88574 3.47799 9.06885 3.73902 9.17697C4.00006 9.2851 4.2873 9.31339 4.56441 9.25827C4.84153 9.20314 5.09608 9.06708 5.29587 8.8673C5.49566 8.66751 5.63171 8.41296 5.68684 8.13584C5.74196 7.85873 5.71367 7.57149 5.60554 7.31045C5.49742 7.04942 5.31431 6.8263 5.07939 6.66933C4.84446 6.51236 4.56826 6.42857 4.28571 6.42857C3.90683 6.42857 3.54347 6.57908 3.27556 6.84699C3.00765 7.1149 2.85714 7.47826 2.85714 7.85714ZM2.85714 10.7143C2.85714 10.9037 2.9324 11.0854 3.06635 11.2194C3.20031 11.3533 3.38199 11.4286 3.57143 11.4286H5C5.18944 11.4286 5.37112 11.3533 5.50508 11.2194C5.63903 11.0854 5.71429 10.9037 5.71429 10.7143C5.71429 10.5248 5.63903 10.3432 5.50508 10.2092C5.37112 10.0753 5.18944 10 5 10H3.57143C3.38199 10 3.20031 10.0753 3.06635 10.2092C2.9324 10.3432 2.85714 10.5248 2.85714 10.7143ZM2.85714 13.5714C2.85714 13.7609 2.9324 13.9426 3.06635 14.0765C3.20031 14.2105 3.38199 14.2857 3.57143 14.2857H5C5.18944 14.2857 5.37112 14.2105 5.50508 14.0765C5.63903 13.9426 5.71429 13.7609 5.71429 13.5714C5.71429 13.382 5.63903 13.2003 5.50508 13.0664C5.37112 12.9324 5.18944 12.8571 5 12.8571H3.57143C3.38199 12.8571 3.20031 12.9324 3.06635 13.0664C2.9324 13.2003 2.85714 13.382 2.85714 13.5714Z" fill="current"/>
</svg>
