<svg width="16" height="18" viewBox="0 0 16 18" fill="none" xmlns="http://www.w3.org/2000/svg">
<path d="M10.9752 7.51171L9.14289 9.37047L9.14289 1.16891C9.14289 0.517389 8.63286 1.26329e-06 7.99059 1.20714e-06C7.34832 1.15099e-06 6.83829 0.517388 6.83829 1.16891L6.83829 9.38964L5.00594 7.53087C4.77925 7.30092 4.4959 7.18595 4.19366 7.18595C3.89142 7.18595 3.60806 7.30092 3.38138 7.53087C2.92802 7.99077 2.92802 8.71895 3.38138 9.17885L7.17831 13.0114C7.63168 13.4713 8.3495 13.4713 8.80287 13.0114L12.5998 9.15969C13.0532 8.69979 13.0532 7.97161 12.5998 7.51171C12.1464 7.05181 11.4286 7.05181 10.9752 7.51171Z" fill="current"/>
<path d="M14.8477 11.3314C14.2054 11.3314 13.6954 11.8488 13.6954 12.5004L13.6954 15.6622L2.3046 15.6622L2.30461 12.5004C2.30461 11.8488 1.79457 11.3314 1.1523 11.3314C0.510036 11.3314 1.49143e-06 11.8488 1.43447e-06 12.5004L1.05586e-06 16.8311C9.98906e-07 17.4826 0.510036 18 1.1523 18L14.8477 18C15.49 18 16 17.4826 16 16.8311L16 12.5004C16 11.8488 15.49 11.3314 14.8477 11.3314Z" fill="current"/>
</svg>
