<svg width="17" height="13" viewBox="0 0 17 13" fill="none" xmlns="http://www.w3.org/2000/svg">
<path d="M15.1087 0H1.8913C1.52231 0 1.16842 0.149687 0.907504 0.416132C0.646583 0.682577 0.5 1.04396 0.5 1.42077V11.5792C0.5 11.956 0.646583 12.3174 0.907504 12.5839C1.16842 12.8503 1.52231 13 1.8913 13H15.1087C15.4777 13 15.8316 12.8503 16.0925 12.5839C16.3534 12.3174 16.5 11.956 16.5 11.5792V1.42077C16.5 1.04396 16.3534 0.682577 16.0925 0.416132C15.8316 0.149687 15.4777 0 15.1087 0ZM13.933 3.95683L9.45304 6.57104C9.16375 6.74328 8.83487 6.83403 8.5 6.83403C8.16513 6.83403 7.83625 6.74328 7.54696 6.57104L3.06696 3.95683C2.90665 3.86431 2.78881 3.71066 2.73926 3.52956C2.68971 3.34846 2.71249 3.15469 2.80261 2.99071C2.84806 2.90931 2.90882 2.83789 2.98141 2.78058C3.054 2.72326 3.13698 2.68117 3.22556 2.65674C3.31415 2.63231 3.40659 2.62602 3.49757 2.63823C3.58854 2.65043 3.67625 2.6809 3.75565 2.72787L8.23565 5.34208C8.31667 5.38747 8.40759 5.41126 8.5 5.41126C8.59241 5.41126 8.68333 5.38747 8.76435 5.34208L13.2443 2.72787C13.3237 2.6809 13.4115 2.65043 13.5024 2.63823C13.5934 2.62602 13.6859 2.63231 13.7744 2.65674C13.863 2.68117 13.946 2.72326 14.0186 2.78058C14.0912 2.83789 14.1519 2.90931 14.1974 2.99071C14.2875 3.15469 14.3103 3.34846 14.2607 3.52956C14.2112 3.71066 14.0933 3.86431 13.933 3.95683Z" fill="current"/>
</svg>
