<svg width="13" height="8" viewBox="0 0 13 8" fill="none" xmlns="http://www.w3.org/2000/svg">
<path fill-rule="evenodd" clip-rule="evenodd" d="M0.979553 2.34465L6.03955 7.40465C6.29955 7.66466 6.71955 7.66466 6.97955 7.40465L11.1796 3.20466V5.60466C11.1796 5.97132 11.4796 6.27132 11.8462 6.27132C12.2129 6.27132 12.5129 5.97132 12.5129 5.60466V1.60465C12.5129 1.23799 12.2129 0.937988 11.8462 0.937988H7.84622C7.47955 0.937988 7.17955 1.23799 7.17955 1.60465C7.17955 1.97132 7.47955 2.27132 7.84622 2.27132H10.2396L6.51289 5.99799L1.91955 1.40465C1.65955 1.14465 1.23955 1.14465 0.979553 1.40465C0.726219 1.66465 0.726219 2.09132 0.979553 2.34465Z" fill="white"/>
</svg>
